<mxfile host="app.diagrams.net" modified="2023-08-05T10:17:30.875Z" agent="Mozilla/5.0 (Windows NT 10.0; Win64; x64) AppleWebKit/537.36 (KHTML, like Gecko) Chrome/115.0.0.0 Safari/537.36" etag="wgwS9bihMCspMMUCjnU2" version="21.6.6" type="github">
  <diagram name="第 1 页" id="UqLK_SBG_hTlP3_JyVGG">
    <mxGraphModel dx="574" dy="303" grid="1" gridSize="10" guides="1" tooltips="1" connect="1" arrows="1" fold="1" page="1" pageScale="1" pageWidth="827" pageHeight="1169" math="0" shadow="0">
      <root>
        <mxCell id="0" />
        <mxCell id="1" parent="0" />
        <mxCell id="qfa2Ok5nrFmA0NEPZ0bN-1" value="" style="rounded=0;whiteSpace=wrap;html=1;" vertex="1" parent="1">
          <mxGeometry x="90" y="100" width="120" height="60" as="geometry" />
        </mxCell>
        <mxCell id="qfa2Ok5nrFmA0NEPZ0bN-2" value="spring boot" style="rounded=1;whiteSpace=wrap;html=1;glass=0;shadow=0;sketch=1;curveFitting=1;jiggle=2;imageAspect=1;connectable=1;allowArrows=1;snapToPoint=0;fillColor=#fad7ac;strokeColor=#b46504;fontStyle=0;fontFamily=Comic Sans MS;" vertex="1" parent="1">
          <mxGeometry x="90" y="260" width="100" height="60" as="geometry" />
        </mxCell>
      </root>
    </mxGraphModel>
  </diagram>
</mxfile>
